<svg viewBox="0 0 860 1289">
  <defs>
    <style>
      .cls-1 {
        fill: #fff;
        opacity: 0.5;
      }
    </style>
  </defs>
  <path id="Color_Fill_1" data-name="Color Fill 1" class="cls-1" d="M617,1244c0.1,8.01.293,17.53-1,24-2,.67-4,1.33-6,2a37.912,37.912,0,0,1-9.977-.16c-3.8-.58-7-2.11-10.023-2.84-7.895-1.9-12.046.64-20-1-1.9-.39-5.635-1.73-9-2-4.474-.36-7.537.52-12,1a103.246,103.246,0,0,1-11,0c-4.189-.05-8.162.24-12,0a78.136,78.136,0,0,1-28-7,76.217,76.217,0,0,1-16-10h-6c-1.175-.54-2.51-3.44-4-4h-6a111.563,111.563,0,0,1-13-10c-3.407-3.04-7.873-7.79-12-12-2.045-2.09-4.576-4.69-6-6-2.343-2.16-6.737-5.56-10-9a58.191,58.191,0,0,1-7-9,24.674,24.674,0,0,1,4-13q2-4.995,4-10l9-27c-10.619-9.74-20.565-19.68-30-30-5.329-5.83-12.363-13.68-15-17-4.145-5.23-7.194-9.37-12-14a89.856,89.856,0,0,0-23-16,37.5,37.5,0,0,1-2-7c-2.169-11.9,2.186-20.94,6-31a181.111,181.111,0,0,0,6-19,69.4,69.4,0,0,1-8-19c-6.411-1.21-14.19-3.509-19-7-2.452-1.78-3.553-3.467-4-5a9.3,9.3,0,0,1,1-7,3.041,3.041,0,0,0,.734-1.864c0.01-1.685-1.747-3.53-4.734-4.136-5.672-1.739-11.267-3.384-17-5-11.231-3.166-22.979-6.145-35-9-18.365-4.362-39.58-9.389-55-13a15.7,15.7,0,0,0-1,5,161.908,161.908,0,0,1,28,61c0.805,3.66,1.464,7.29,2,11,1,1.33,2,2.67,3,4,4.727,7.35,5.3,15.81,10,23,1.638,2.5,5.885,3.92,7,7v12a93.574,93.574,0,0,0,5,13c4.635,9.29,15.233,23.21,17,34a19.99,19.99,0,0,1-5-2,19.743,19.743,0,0,1-4-3c-6.174-5.6-12.289-10.98-18.626-16.39-8.716-7.44-17.362-14.53-26.374-21.61a49.88,49.88,0,0,1-1-11c0.135-6.47,1.611-10.68,3-17,0.563-2.56,1.314-8.48,2-13,0.656-4.31,1.324-8.66,2-13a209.689,209.689,0,0,1-64-47c0.734-2.644-1.246-5.889,0-9l3-4q0.5-3,1-6c3.67-11.9,5.059-24.1,9-37,3.76-12.307,8.34-29.727,13-45,1.271-4.165,2.578-8.128,4-12,1.635-4.453,4.492-11.176,7-17,2.223-5.161,4.271-10.087,6-15,0.707-2.009,1.363-3.977,2-6l3-10a62.871,62.871,0,0,0,3-7c0.732-2.047,1.256-3.957,2-6,0.538-1.476,1.668-4.163,2-5a87.01,87.01,0,0,0,3-9c1.284-3.711,2.6-7.321,4-11a438.517,438.517,0,0,1,19-42c4.7-9.2,10.946-20.461,17-31,3.3-5.752,6.6-11.351,10-17l4-6q3-4.035,6-8c2.032-2.686,4.46-5.895,6-8,1.009-1.38,3.322-4.648,5-7,3.677-5.156,7.36-9.818,11-15,1.7-2.427,5.3-7.922,8-12,2.5-3.78,5.255-7.933,7-11,2.616-4.6,4.065-8.6,7-13a77.836,77.836,0,0,0,5-8,58.121,58.121,0,0,0,3-7c2.365-6.646,6.828-17.688,10-27,1.021-3,2.013-5.972,3-9l4-6,4-7c1.7-3.35,3.362-6.667,5-10,1.344-2.734,2.938-6.015,4-8a121.423,121.423,0,0,1,11-17,129.866,129.866,0,0,0,6-14c0.721-2,1.377-3.968,2-6a40.5,40.5,0,0,0,11-14,39.7,39.7,0,0,0,3-9,85.16,85.16,0,0,0-5-8c-0.967-1.372-1.953-2.687-3-4a9.637,9.637,0,0,1-4-7,9.8,9.8,0,0,1,2-6,25.856,25.856,0,0,1,6-6c0.926-.683,4.453-4.411,7-7,11.776-11.969,20.657-24.026,22-30,2.355-10.474-2.141-18.544-5-32-4.06-19.1-2.442-35.343,0-44,1.451-5.145,5.366-9.757,7-15l2-1v3a84.464,84.464,0,0,0-6,18c-2.822,13.342-2.936,29.728,2,45,2.192,6.783,5.493,13.967,4,24-0.454,3.049-3.413,10.415-7,17-2.676,4.913-5.44,9.025-8,14-1.057,2.054-1.9,4-3,6a36.129,36.129,0,0,0-2,4,29.063,29.063,0,0,0-2,8,34.286,34.286,0,0,1,2,6c0.356,1.56.664,3.135,2,4,1.819,1.177,4.578.375,7-1,8.472-1.983,16.786-3.81,25.309-5.562,9.61-1.974,19.025-3.759,28.691-5.438q1-3.5,2-7c-0.078-2.679-.078-5.308,0-8a122.244,122.244,0,0,1,1-13,99.73,99.73,0,0,1,5-20c2.079-5.767,6.429-14.1,11-22,4.465-7.72,8.379-13.85,12-22,1.47-3.309,2.79-6.608,4-10l4-10a95.282,95.282,0,0,0,6-14c1.154-3.42,1.878-6.569,3-10a93.99,93.99,0,0,1,9-19c9.258-15.3,23.479-23.506,40-38a194.6,194.6,0,0,1,16-13,139.447,139.447,0,0,1,16-10,125.568,125.568,0,0,1,22-9q5.942-1.8,12-3,0.5,1,1,2h-1c-5.4,5.488-13.652,9.182-20,11v2h1v-1c7.476,0.919,22.635-10.062,25-15l6-1c2.01-.335,4.969-0.82,6-1,9.7-1.694,16.338-3.424,24-2a38.616,38.616,0,0,1,7,2,16.836,16.836,0,0,1,1.25,2.095A11.737,11.737,0,0,1,702,208h-2a30.964,30.964,0,0,0-11-3,33.119,33.119,0,0,0-16,3c-15.564,6.663-30.443,22.15-38,30-2.01,2.089-3.96,4.041-6,6-3.288,3.157-6.578,6.119-10,9-1.754-.631-0.971-0.193-2-1h-1v-1c1.754-.631.971-0.193,2-1-1.754.631-.971,0.193-2,1a14.842,14.842,0,0,0-1,5c-1.354.987-2.668,1.972-4,3-1.725,1.331-3.451,2.7-5,4a107.1,107.1,0,0,0-14,14,98.662,98.662,0,0,0-11,17c-3.8,7.175-8.969,16.73-11,21-3.5,7.358-5.925,13.945-10,21a178.752,178.752,0,0,1-15,21c-2.147,2.652-8.653,10.691-9,11-2.647,2.359-6.824,5.509-8,11a16.533,16.533,0,0,0,0,6c0.8,6.153-.789,9.846,0,16,0.461,3.6,1.417,6.419,2,10a97.484,97.484,0,0,1,1,10c0.343,5.685.752,12.508,1,17a83.571,83.571,0,0,0,8,4c1.568,0.683,3.839,1.526,5,2a89.346,89.346,0,0,1,17,10,46.841,46.841,0,0,1,6,5,36.782,36.782,0,0,1,8,13,30.7,30.7,0,0,1,1,4c0.212,1.183.176,4.084,1,6,1.48,3.439,4.339,3.62,6,7a18.249,18.249,0,0,1,1,5,24.047,24.047,0,0,1,0,4,130.655,130.655,0,0,1-3,19c-1.369,5.269-2.208,15.791-2,26,0.082,4.029.473,9.089,1,14,0.682,6.361,2.766,18.43,3,20,0.626,4.2,1.334,11.21,2,17,1.141,9.91,2.761,19.1,4,29,2.317,18.51,2.322,34.539,5,53,0.791,5.453,1.474,10.6,2,16,0.394,4.049.632,7.948,1,12,0.494,5.447,1.213,11.2,2,17,1.316,9.7,2.748,21.846,4,33q0.5,5,1,10c0.8,7.046,1.458,13.93,2,21,0.411,5.368.74,10.623,1,16q1,9,2,18c0.643,10.017,1.308,19.986,2,30,0.646,9.348,1.311,18.655,2,28q1,9.5,2,19c0.124,9.762.447,19.276,0.983,29.024,0.5,9.08,1.161,17.922,2.017,26.976q0.5,11,1,22c0.709,9.689,1.372,19.3,2,29,0.346,5.34.678,10.66,1,16,0.718,15.82,1.7,31.23,3,47,0.639,7.76,1.427,15.24,2,23,1.006,13.62,1.669,30.26,3,45,0.58,6.42,1.236,12.66,2,19,0.9,12.5,1.983,26.55,3,37,0.467,4.8.795,9.21,1,14,0.3,7.05.3,14.01,0,21,0.416,2.75.7,5.49,0.869,8.26,0.154,2.59.2,5.15,0.131,7.74C632.408,1243.53,625.874,1244.07,617,1244ZM652,207h2v1C652.246,207.369,653.029,207.807,652,207Zm-25,14c-1.359,1.261-1.768,1.365-4,2v2h1c1.752-2.042,2.493-1.98,6-3v-1h-3Zm-7,3c-2.243,1.733-1.591,1.368-4,1-0.134,3.844-5.221,4.985-8,9h1c1.4-2.006,1.346-2.066,4-3-0.058,2.906-.964,1.389,0,3v-1c2.948-4.149,1.911-4.667,9-8C620.979,224.2,621.726,224.645,620,224Zm-6,1c-1.021.8-.274,0.355-2,1v1C613.146,226.563,616.7,225.846,614,225Zm-2,10c0.074,2.532.12,3.716,1,5C612.926,237.467,612.88,236.283,612,235Zm18,3c-1.021.8-.274,0.355-2,1v1h2q0.5-1,1-2h-1Zm-5,4c-0.173.3-2,3-2,3C625.165,243.27,625.066,243.436,625,242Zm-6,5c0.075,2.235-.217.707,2,1v-1h-2Zm46,131h2v4c-7.179,5.213-10.715,15.838-16,23-7.094,9.613-14.674,19.146-22,29l-7,6c-8.955,12.826-19.759,28.649-33,37v-4c7.829-5.645,14.108-17.289,20-25,3.518-4.605,9.547-8.243,13-13C636.134,415.525,650.637,396.976,665,378ZM301,1127a21.985,21.985,0,0,1,4,6c0.935,2.09,1.312,4.14,2,6a43.85,43.85,0,0,0,3,6c0.626,1.16,2,4,3,6,5.445,10.86,11.191,21.27,15,31,0.664,1.7,1.383,3.53,2,5,1.009,2.41,2.432,5.8,3,7,1.318,2.79,2.822,5.71,3,10a41.834,41.834,0,0,1-1,7,6.077,6.077,0,0,1-2,4,5.116,5.116,0,0,1-3,1v-9c0.565-.71,1.442-0.04,1-2h-1l-6-6c-1.667-1.67-3.333-3.33-5-5,0.079-5.59,1.693-14.42,1-16-1.291-4.49-2.955-6.02-9-6-2.42-.57-4.766-1.24-7-2a40.694,40.694,0,0,1-5.742-2.89A5.513,5.513,0,0,1,296,1165c-1.1-1.98-.237-3.91,0-7a19.765,19.765,0,0,0,0-3,51.783,51.783,0,0,0,2-6,42.524,42.524,0,0,0,1.427-7.66c0.186-4.13-.492-7.19.573-11.34A21.989,21.989,0,0,1,301,1127Z"/>
</svg>
